<?xml version="1.0" standalone="no"?><!DOCTYPE svg PUBLIC "-//W3C//DTD SVG 1.1//EN" "http://www.w3.org/Graphics/SVG/1.1/DTD/svg11.dtd"><svg t="1506793072318" class="icon" style="" viewBox="0 0 1024 1024" version="1.1" xmlns="http://www.w3.org/2000/svg" p-id="988" xmlns:xlink="http://www.w3.org/1999/xlink" width="32" height="32"><defs><style type="text/css"></style></defs><path d="M733.6691 437.120592 520.61061 437.120592 307.566446 437.120592" p-id="989" fill="#ffffff"></path><path d="M732.499461 440.717514 303.978734 440.717514 303.978734 277.680277l428.52175 0L732.500485 440.717514zM691.83839 139.768277 349.39818 139.768277M691.83839 139.768277 349.39818 139.768277M378.92568 280.453437c-16.84976 0-24.358781 12.585643-24.358781 40.048111 0 27.468608 0 77.81118 0 77.81118l24.358781 0 24.349571 0c0 0 0-50.341548 0-77.81118C403.275251 293.03908 395.776464 280.453437 378.92568 280.453437zM446.08015 280.453437c-16.841573 0-24.341385 12.585643-24.341385 40.048111 0 27.468608 0 77.81118 0 77.81118l24.341385 0 24.358781 0c0 0 0-50.341548 0-77.81118C470.43893 293.03908 462.939119 280.453437 446.08015 280.453437zM513.243829 280.453437c-16.859993 0-24.342408 12.585643-24.342408 40.048111 0 27.468608 0 77.81118 0 77.81118l24.342408 0 24.357757 0c0 0 0-50.341548 0-77.81118C537.600563 293.03908 530.109961 280.453437 513.243829 280.453437zM580.400345 280.453437c-16.85283 0-24.358781 12.585643-24.358781 40.048111 0 27.468608 0 77.81118 0 77.81118l24.358781 0 24.350594 0c0 0 0-50.341548 0-77.81118C604.750939 293.03908 597.255221 280.453437 580.400345 280.453437zM647.577327 280.453437c-16.868179 0-24.358781 12.585643-24.358781 40.048111 0 27.468608 0 77.81118 0 77.81118l24.358781 0 24.335245 0c0 0 0-50.341548 0-77.81118C671.912571 293.03908 664.4189 280.453437 647.577327 280.453437zM758.527255 229.462089c-44.351114-0.595564-68.019163-79.548754-67.544349-89.182158L518.891456 140.27993 346.806145 140.27993c0.48607 9.634428-23.191188 88.587618-67.542302 89.182158-49.579185 0.679475-66.590628-50.621934-66.590628-50.621934 3.462868 95.815229 90.239234 98.840122 90.239234 98.840122l215.979006 0 215.986169 0c0 0 86.768179-3.025916 90.240257-98.840122C825.117882 178.839131 808.11258 230.140541 758.527255 229.462089z" p-id="990" fill="#ffffff"></path><path d="M822.454216 866.906126 514.505565 866.906126 206.58045 866.906126" p-id="991" fill="#ffffff"></path><path d="M820.761668 872.103498 201.395358 872.103498 201.395358 636.452453l619.367333 0L820.762691 872.103498zM761.994216 437.120592 267.044544 437.120592M761.994216 437.120592 267.044544 437.120592M309.720505 640.46279c-24.354688 0-35.20685 18.190291-35.20685 57.882292 0 39.70428 0 112.465444 0 112.465444l35.20685 0 35.196617 0c0 0 0-72.761164 0-112.465444C344.917122 658.654105 334.076216 640.46279 309.720505 640.46279zM406.782122 640.46279c-24.341385 0-35.181267 18.190291-35.181267 57.882292 0 39.70428 0 112.465444 0 112.465444l35.181267 0 35.208896 0c0 0 0-72.761164 0-112.465444C441.991018 658.654105 431.151136 640.46279 406.782122 640.46279zM503.857041 640.46279c-24.366967 0-35.180244 18.190291-35.180244 57.882292 0 39.70428 0 112.465444 0 112.465444l35.180244 0 35.207873 0c0 0 0-72.761164 0-112.465444C539.064914 658.654105 528.238334 640.46279 503.857041 640.46279zM600.923774 640.46279c-24.359804 0-35.205826 18.190291-35.205826 57.882292 0 39.70428 0 112.465444 0 112.465444l35.205826 0 35.196617 0c0 0 0-72.761164 0-112.465444C636.12039 658.654105 625.288694 640.46279 600.923774 640.46279zM698.020182 640.46279c-24.38027 0-35.20685 18.190291-35.20685 57.882292 0 39.70428 0 112.465444 0 112.465444l35.20685 0 35.174104 0c0 0 0-72.761164 0-112.465444C733.194286 658.654105 722.363613 640.46279 698.020182 640.46279zM858.38352 566.762231c-64.103993-0.860601-98.31312-114.978684-97.626481-128.902812L512.022001 437.859419 263.296173 437.859419c0.703011 13.924127-33.520441 128.042211-97.622388 128.902812-71.66111 0.981351-96.248088-73.169463-96.248088-73.169463 5.006014 138.490168 130.428561 142.859685 130.428561 142.859685l312.168766 0 312.178999 0c0 0 125.412314-4.370541 130.430608-142.859685C954.632631 493.592768 930.051793 567.743582 858.38352 566.762231z" p-id="992" fill="#ffffff"></path></svg>