<?xml version="1.0" standalone="no"?><!DOCTYPE svg PUBLIC "-//W3C//DTD SVG 1.1//EN" "http://www.w3.org/Graphics/SVG/1.1/DTD/svg11.dtd"><svg t="1510988124409" class="icon" style="" viewBox="0 0 1024 1024" version="1.1" xmlns="http://www.w3.org/2000/svg" p-id="5774" xmlns:xlink="http://www.w3.org/1999/xlink" width="87" height="87"><defs><style type="text/css"></style></defs><path d="M962.614419 605.266174 834.648956 605.266174c2.939959-17.795295 4.796236-36.055171 4.796236-54.698786 0-9.204639-0.61603-18.334577-1.39272-27.309996L962.614419 523.257391c22.747073 0 41.161469 18.334577 41.161469 41.004903C1003.775888 587.006298 985.361493 605.266174 962.614419 605.266174L962.614419 605.266174z" p-id="5775" fill="#ffffff"></path><path d="M776.159844 357.226984c-16.247033-22.281469-34.817993-42.553165-56.014758-60.038398l81.235163-81.312934c16.092513-16.014742 42.088584-16.014742 58.025555 0 16.09456 16.014742 16.09456 42.011836 0 58.104349L776.159844 357.226984 776.159844 357.226984z" p-id="5776" fill="#ffffff"></path><path d="M779.258415 605.266174l-84.644819 0c5.262864-17.328667 8.04728-35.588543 8.04728-54.698786 0-105.760742-85.72543-191.561897-191.561897-191.561897-105.762789 0-191.560874 85.801155-191.560874 191.561897 0 19.110243 2.937912 37.371142 8.043187 54.698786l-84.637656 0c-3.559059-17.638729-5.417383-35.899628-5.417383-54.698786 0-151.176095 122.474402-273.649474 273.572726-273.649474 151.177118 0 273.725198 122.473379 273.725198 273.649474C784.824177 569.366545 782.813381 587.627445 779.258415 605.266174L779.258415 605.266174z" p-id="5777" fill="#ffffff"></path><path d="M470.09203 224.926796 470.09203 112.589264c0-22.669302 18.412348-41.004903 41.006949-41.004903 22.747073 0 41.077557 18.3356 41.077557 41.004903l0 112.337531c-13.458523-1.702782-27.151383-2.786463-41.077557-2.786463C497.173828 222.142379 483.553623 223.225037 470.09203 224.926796L470.09203 224.926796z" p-id="5778" fill="#ffffff"></path><path d="M246.112816 357.226984l-83.244936-83.248006c-16.017812-16.092513-16.017812-42.087561 0-58.104349 16.012695-16.014742 42.010813-16.014742 58.023508 0l81.312934 81.312934C281.006534 314.673819 262.28617 335.020216 246.112816 357.226984L246.112816 357.226984z" p-id="5779" fill="#ffffff"></path><path d="M182.748672 550.567387c0 18.643616 1.935072 36.904515 4.951779 54.698786L59.580468 605.266174c-22.591531 0-41.005926-18.260899-41.005926-41.003879 0-22.669302 18.415418-41.004903 41.005926-41.004903l124.561947 0C183.369819 532.231787 182.748672 541.362748 182.748672 550.567387L182.748672 550.567387z" p-id="5780" fill="#ffffff"></path><path d="M521.675872 642.249483c-9.979282 0.461511-20.037359-2.787486-27.697829-10.061147l-69.707618-66.841338c-14.391778-13.771655-14.391778-36.20969 0-49.982368 14.543228-13.848403 37.908378-13.848403 52.300156 0l45.104267 43.171242 45.105291-43.171242c14.389732-13.848403 37.755905-13.848403 52.29811 0 14.391778 13.772678 14.391778 36.210713 0 49.982368l-69.784366 66.841338C541.71323 639.461997 531.656177 642.709971 521.675872 642.249483L521.675872 642.249483z" p-id="5781" fill="#ffffff"></path><path d="M118.225123 682.479743 903.968741 682.479743c22.441105 0 40.696888 17.795295 40.696888 39.613206 0 21.816888-18.255783 39.458687-40.696888 39.458687L118.225123 761.551636c-22.434965 0-40.539298-17.640776-40.539298-39.458687C77.684802 700.274014 95.790158 682.479743 118.225123 682.479743L118.225123 682.479743z" p-id="5782" fill="#ffffff"></path><path d="M257.330298 839.999312l527.337313 0c23.057135 0 41.625026 17.641799 41.625026 39.458687 0 21.817911-18.567891 39.61116-41.625026 39.61116L257.330298 919.069159c-23.052019 0-41.62298-17.794271-41.62298-39.61116C215.707318 857.642135 234.278279 839.999312 257.330298 839.999312L257.330298 839.999312z" p-id="5783" fill="#ffffff"></path></svg>