<?xml version="1.0" standalone="no"?><!DOCTYPE svg PUBLIC "-//W3C//DTD SVG 1.1//EN" "http://www.w3.org/Graphics/SVG/1.1/DTD/svg11.dtd"><svg t="1510987475238" class="icon" style="" viewBox="0 0 1024 1024" version="1.1" xmlns="http://www.w3.org/2000/svg" p-id="974" xmlns:xlink="http://www.w3.org/1999/xlink" width="200" height="200"><defs><style type="text/css">@font-face {
  font-family: "weel-translate";
  font-style: normal;
  font-weight: normal;
  src: url("moz-extension://8e2eef88-25af-4cd7-8577-85534a18e46f/fonts/weel-translate.ttf") format("truetype"), url("moz-extension://8e2eef88-25af-4cd7-8577-85534a18e46f/fonts/weel-translate.woff") format("woff");
}
@font-face {
  font-family: "weel-translate";
  font-style: normal;
  font-weight: normal;
  src: url("moz-extension://8e2eef88-25af-4cd7-8577-85534a18e46f/fonts/weel-translate.ttf") format("truetype"), url("moz-extension://8e2eef88-25af-4cd7-8577-85534a18e46f/fonts/weel-translate.woff") format("woff");
}
</style></defs><path d="M223.4 91.1c14.9 0 28.9 7 39.4 19.6l8 9.7 12.4-2c3-0.5 5.4-0.7 7.6-0.7 20.6 0 39.3 13.3 48.7 34.8l5.9 13.4 14.6-0.2h1c25.9 0.4 46.9 25 46.9 55.2 0 21.9-11.2 41.7-28.5 50.5l-3.5 1.5-3.8 1.3h-11.8c-1.2 0-2.4 0-3.6-0.1-1.7 0-3.7-0.1-6-0.1-1.9 0-3.8 0-5.9 0.1H182.7l-2.6 0.7c-3.4 0.8-6.7 1.3-10 1.3-26.2 0-47.5-24.8-47.5-55.2 0-23.7 13-44.7 32.4-52.3l13-5.1 0.9-13.9c1.1-16.3 7.5-31.2 18-42.2 10.1-10.6 23-16.3 36.5-16.3m0-22c-40.4 0-73.5 34.8-76.4 78.9-27 10.6-46.4 39.1-46.4 72.8 0 42.7 31.1 77.2 69.5 77.2 5.3 0 10.4-0.7 15.3-1.9h159.8c2.2-0.1 4-0.1 5.6-0.1 3.7 0 6.3 0.1 9.4 0.1h2.4c3.9 0 7.4-0.1 11.8-0.1h1.3l8.1-2.7 5-2.1c24.2-12.1 41.1-39 41.1-70.5 0-42.7-31.1-77.2-69.5-77.2h-0.8c-12.5-28.4-38.6-47.9-68.9-47.9-3.8 0-7.5 0.4-11.1 1-13.9-16.8-33.9-27.5-56.2-27.5zM766 283.4l124.5 540H646.8l119.2-540m-0.5-99.2c-0.1 0-0.2 0.1-0.2 0.2L619.5 845.2c0 0.1 0.1 0.2 0.2 0.2h298.2c0.1 0 0.2-0.1 0.2-0.2L765.7 184.3c0-0.1-0.1-0.1-0.2-0.1z" fill="#ffffff" p-id="975"></path><path d="M759 751.1h19.6v203.4H759zM568.3 502.9c-9.8-88.5-80.3-156.2-163.9-149.7-71.1 5.5-130.5 66.5-141.2 144.9-3.7 27.2-1.4 53.2 5.3 77.1-29.9 24-49.1 63.7-47.4 108.3 2.1 53.8 35.8 100.6 82.2 116.1 19.5 6.5 38.2 6.6 55.5 2.5 4.5-1.1 7.8-5.5 7.8-10.7 0-6.9-5.7-12.1-11.7-10.6-12.3 3-25.4 3.3-39 0.2-42.1-9.9-73.7-51.1-75.2-98.9-1.1-35.1 13-66.1 35.5-86.1 2.5-2.2 5.1-4.3 7.8-6.2 0.2-0.1 0.3-0.2 0.5-0.4 2.8-2 5.8-3.8 8.8-5.5-8.6-21.8-12.8-46.2-10.9-72 5.4-73.3 60.1-132.3 126.2-135.9 75.7-4.2 138.4 61.8 140.2 144.6l0.1 0.1c3.7 0.7 7.5 1.5 11.1 2.5 0.7 0.2 1.4 0.5 2.1 0.7 58.7 17.9 100.5 81 92.7 153.6-6.9 63.8-53.2 115.3-110.6 123-28.9 3.9-56-3.1-78.7-17.6-6.5-4.2-14.7 1-14.7 9.4 0 3.8 1.8 7.5 4.8 9.4 25.9 16.6 56.8 24.7 89.6 20.7 69.3-8.6 124.4-72.2 129.7-149.5 5.3-80.7-41.5-149.5-106.6-170z" fill="#ffffff" p-id="976"></path><path d="M536.2 611.4c-50.1-5.8-85.1 30.2-102.6 54.3v-149H414v148.8c-14.3-21.9-38.1-41.6-76.7-35.1-4 0.7-7.2 4.2-7.2 8.7 0 5 3.8 8.9 8.3 8.7 17.7-0.9 49-8.9 75.6 57.2v255.3h19.6v-265c33.9-63.2 82.3-67.6 101.5-66.6 4.5 0.2 8.3-3.7 8.3-8.7 0-4.5-3.1-8.2-7.2-8.6z" fill="#ffffff" p-id="977"></path></svg>