<?xml version="1.0" standalone="no"?><!DOCTYPE svg PUBLIC "-//W3C//DTD SVG 1.1//EN" "http://www.w3.org/Graphics/SVG/1.1/DTD/svg11.dtd"><svg t="1510987938148" class="icon" style="" viewBox="0 0 1024 1024" version="1.1" xmlns="http://www.w3.org/2000/svg" p-id="2730" xmlns:xlink="http://www.w3.org/1999/xlink" width="87" height="87"><defs><style type="text/css"></style></defs><path d="M512.528 935.456c-98.944 0-197.92 0.32-296.864-0.432a105.12 105.12 0 0 1-35.248-6.16c-18.624-6.816-32.288-18.816-42.256-35.008-7.296-11.84-11.936-24.8-12.784-39.344-4.624-80.144-0.704-160.32-1.808-240.48-0.096-6.064-2.048-10.208-6.624-13.28-18.928-12.656-34.464-28.88-47.744-47.104a167.008 167.008 0 0 1-16.72-29.584 300.24 300.24 0 0 1-13.904-37.392c-2.576-8.656-3.232-17.92-4.56-26.928-0.704-4.768-0.992-9.6-1.504-14.4-1.952-18.304 2.08-36.176 5.568-53.792 2.464-12.4 5.6-25.12 12.496-36.416 3.232-5.312 4.432-11.84 6.736-17.744 1.664-4.256 3.568-8.448 5.44-12.624 4.336-9.632 8.864-19.168 13.056-28.864 3.888-9.024 7.36-18.24 11.168-27.28 4.4-10.464 9.072-20.8 13.408-31.296 4.096-9.92 7.76-20 11.872-29.92 3.52-8.512 7.36-16.88 11.12-25.296 2.592-5.808 5.504-11.488 7.84-17.392a99.536 99.536 0 0 1 33.92-44.416 120.912 120.912 0 0 1 36.064-18.08c8.544-2.72 17.744-3.488 26.72-4.672 6.72-0.896 13.52-1.472 20.288-1.472 178.816-0.096 357.632-0.144 536.464 0.048 8.192 0 16.448 1.84 24.576 3.392 9.072 1.728 18.32 3.264 26.912 6.448 8.016 2.96 15.472 7.68 22.848 12.144 13.728 8.272 24.048 20.224 32.544 33.44 4.96 7.712 8 16.64 11.696 25.12 2.992 6.848 5.712 13.84 8.48 20.8 2.272 5.712 4.368 11.488 6.64 17.2 2.688 6.784 5.52 13.536 8.224 20.32 2.416 6.08 4.672 12.208 7.136 18.256 2.512 6.208 5.168 12.368 7.776 18.528 1.952 4.608 4.096 9.12 5.872 13.792 3.968 10.384 7.552 20.928 11.648 31.248 4.048 10.176 8.64 20.112 12.784 30.24 2.4 5.856 4.464 11.84 6.496 17.824 2.832 8.384 5.504 16.8 8.24 25.216 0.288 0.928 0.656 1.856 0.768 2.8 2.256 18.88 6.656 37.824 3.696 56.752-2.08 13.28-1.168 27.056-6.848 39.952-4.72 10.72-6.496 22.768-11.616 33.232-10.208 20.896-22.56 40.608-40.144 56.368-9.504 8.512-19.456 16.56-28.816 25.232a12.832 12.832 0 0 0-3.6 8.48c-0.16 77.344-0.096 154.672-0.112 232 0 12.704-1.664 25.28-6.96 36.848a101.28 101.28 0 0 1-20.64 29.728c-9.136 9.12-20.72 13.968-31.76 19.808-0.832 0.448-1.872 0.528-2.848 0.624-12.928 1.184-25.856 3.296-38.784 3.328-95.456 0.288-190.896 0.16-286.352 0.16v0.048z m1.44-802.72c-90 0-180 0.08-270-0.064-16.928-0.032-33.312 2.048-48.048 10.864-6.24 3.728-12.192 8.24-17.488 13.232-10.272 9.648-14.976 22.672-19.904 35.472-2 5.2-4.08 10.4-6.336 15.488-4.272 9.68-8.8 19.248-12.992 28.96-4.336 10.048-8.336 20.24-12.592 30.336-3.968 9.424-8.176 18.752-12.112 28.192-2.448 5.872-4.336 11.968-6.848 17.808-5.84 13.536-12.032 26.928-17.808 40.48-4.448 10.448-9.04 20.896-12.544 31.68-3.232 9.904-5.968 20.16-7.328 30.464-1.28 9.776-0.768 19.84-0.544 29.76 0.16 7.536 0.416 15.232 1.952 22.592 1.76 8.48 4.592 16.8 7.68 24.896 3.536 9.312 6.816 19.008 12.144 27.296 7.472 11.68 16.128 22.72 25.392 33.056 9.28 10.368 20.8 18.288 32.608 25.888 13.12 8.4 27.36 13.552 42.016 17.36 11.312 2.944 23.28 3.328 34.944 4.96 16.752 2.336 32.896-2.144 48.832-5.568 14.608-3.136 28.448-9.456 41.408-17.424 14.944-9.168 28.864-19.36 40.032-33.04 8.88-10.88 20.912-11.84 31.328-2.608 2.848 2.528 4.864 5.984 7.68 8.576 13.696 12.592 27.744 24.768 45.312 31.856 11.2 4.528 22.16 10.288 33.792 13.04 16.368 3.888 33.2 6.688 50.192 4.72 9.408-1.088 18.928-2.432 27.952-5.152 14.368-4.32 28.32-9.824 41.312-17.696 15.008-9.12 28.832-19.552 39.952-33.216 8.368-10.288 21.824-11.232 31.2-1.856 3.568 3.584 7.12 7.184 10.72 10.736a150.32 150.32 0 0 0 41.488 29.36c8.864 4.176 18.032 8.144 27.488 10.56 12.864 3.28 26.048 6.08 39.248 7.104 19.984 1.536 39.424-2.336 58.8-7.776 16.608-4.656 31.392-12.544 44.8-22.48a167.12 167.12 0 0 0 54.88-69.232c6.112-14.224 10.24-28.992 12.16-43.984a157.696 157.696 0 0 0-12.608-85.84c-5.584-12.48-10.176-25.392-15.232-38.112-1.84-4.64-3.76-9.248-5.552-13.92-3.872-10.08-7.52-20.224-11.552-30.224-4.112-10.16-8.8-20.08-12.848-30.256-4.064-10.176-7.648-20.56-11.52-30.816-1.76-4.672-3.76-9.248-5.632-13.888-2.816-6.928-5.36-13.984-8.464-20.8-3.92-8.56-7.536-17.424-12.656-25.264-7.84-12-18.336-21.568-32.16-26.496-8.992-3.2-18.08-6.608-27.408-8.24-8.336-1.456-17.088-0.752-25.664-0.752-86.496-0.032-172.976-0.032-259.472-0.032z m-1.472 767.088c96.208 0 192.432 0 288.64-0.032 9.648 0 18.96-0.4 28.56-3.744 15.76-5.52 25.248-16.8 30.896-30.944 3.632-9.056 4.464-19.728 4.512-29.68 0.368-67.376 0.208-134.768 0.192-202.16 0-7.104-2.752-8.736-8.768-6.88-9.76 3.04-19.68 6.608-29.76 7.44-17.424 1.456-35.008 0.848-52.512 1.392-14.4 0.448-28.112-3.472-41.68-7.056-10.656-2.816-20.56-8.448-30.8-12.864-16.848-7.264-31.568-17.68-44.976-30.128-3.216-2.992-7.36-4.368-10.992-0.752-11.36 11.312-24.56 20.112-38.4 27.872-8.352 4.672-17.312 8.384-26.32 11.68-7.568 2.768-16 3.392-23.328 6.624-10.656 4.704-21.76 4.32-32.688 4.368-20.704 0.08-41.648 2.112-61.856-5.12-7.936-2.848-16.432-4.16-24.224-7.328a151.2 151.2 0 0 1-24.672-12.528 517.232 517.232 0 0 1-33.392-23.648c-5.12-3.872-9.6-4.208-14.464 0.048-5.408 4.72-10.832 9.44-16.672 13.568a184.8 184.8 0 0 1-50.848 25.68c-13.856 4.4-27.568 8.864-42.256 9.216-5.232 0.128-10.816-0.432-15.568 1.232-5.6 1.968-10.56 1.6-15.888 0.208a24.736 24.736 0 0 0-6.864-1.12c-18.08 0.528-35.504-2.864-52.464-8.928-3.616-1.28-5.696-0.048-6.464 3.488a27.312 27.312 0 0 0-0.48 5.792c-0.032 69.344-0.176 138.672 0.128 208 0.064 12.384 4.272 24.096 11.552 34.224 10.976 15.312 26.4 22.08 45.04 22.08h296.816z m-0.064-546.528l265.328 0.016c5.44 0 10.912 0.192 16.352 0.384 6.976 0.224 12.992 4.704 14.752 10.848 2.24 7.84-0.16 16.96-6.496 20.032-3.808 1.856-8.64 2.24-13.024 2.24-105.6 0.096-211.168 0.08-316.752 0.08l-234.944-0.016c-2.912 0-5.824-0.304-8.736-0.4-10.304-0.352-12.8-7.2-13.52-14.128-1.024-10.096 4.304-18.832 15.36-18.72 7.984 0.08 15.968-0.32 23.952-0.32h257.728z" fill="#ffffff" p-id="2731"></path></svg>