<?xml version="1.0" standalone="no"?><!DOCTYPE svg PUBLIC "-//W3C//DTD SVG 1.1//EN" "http://www.w3.org/Graphics/SVG/1.1/DTD/svg11.dtd"><svg t="1510988074007" class="icon" style="" viewBox="0 0 1024 1024" version="1.1" xmlns="http://www.w3.org/2000/svg" p-id="4511" xmlns:xlink="http://www.w3.org/1999/xlink" width="87" height="87"><defs><style type="text/css"></style></defs><path d="M342.528 212.928c11.392 0.896 19.264 1.728 27.136 2.112 3.008 0.064 6.336-0.192 8.96-1.408 39.872-18.112 81.088-31.936 124.48-38.208 56.704-8.192 111.808-3.584 162.88 24.96 28.736 16 52.16 37.824 69.184 66.176 2.112 3.584 3.904 7.04 9.728 5.056 36.864-12.672 74.112-10.432 110.976-0.576 70.144 18.688 111.616 65.024 125.12 135.744 6.848 36.864 0 72.96-13.568 107.968-21.312 54.784-48.064 106.624-86.08 152-53.76 64.064-119.872 108.544-202.304 127.04-3.84 0.896-7.744 1.408-11.712 1.856-20.672 2.496-32.512-7.872-35.392-29.952-7.744-59.072-19.84-117.248-36.032-174.592-16.704-58.688-35.712-116.608-61.056-172.16-20.608-44.992-49.6-84.416-89.472-114.624-50.816-38.528-106.816-42.56-165.696-21.888-45.76 16.064-85.056 42.88-121.92 73.92-26.368 22.144-45.184 49.024-55.104 81.856-12.992 42.688-2.048 82.048 19.264 119.36 22.336 39.04 53.44 70.656 87.616 99.584 58.688 49.664 124.352 88.384 193.216 121.92 20.672 10.176 42.432 16.832 66.112 14.464 9.856-1.088 17.408-4.736 23.04-13.504 13.312-20.864 13.504-43.264 8.448-66.24-9.856-44.16-32.96-82.048-59.264-118.016-9.28-12.608-20.16-24.384-31.68-35.072-10.432-9.664-16.832-7.808-24.512 4.032-1.536 2.368-2.688 4.992-3.968 7.488-7.296 14.272-23.488 20.352-37.44 14.208-14.976-6.656-21.504-22.976-14.528-38.336 10.944-24.256 27.2-43.2 54.528-49.216 24.96-5.504 46.272 3.264 65.024 19.072 29.312 24.64 49.728 56.384 69.056 88.768 18.368 30.656 33.088 62.976 39.808 98.368 7.872 41.024 4.224 79.744-22.4 114.304-14.016 18.24-32.512 27.456-54.528 30.912-37.952 6.016-72.832-4.416-106.368-20.8-65.92-32.192-129.024-69.248-186.24-115.584-47.808-38.784-90.88-81.856-120.384-136.896-19.648-36.672-29.76-75.712-26.496-117.312 2.944-37.504 17.216-71.104 38.528-101.888 22.784-33.088 54.272-56.832 86.464-79.424 41.216-28.864 85.632-50.88 135.616-60.032C316.096 215.552 331.008 214.464 342.528 212.928zM763.136 324.352c23.616 71.552 22.912 141.952 12.352 212.736-8.512 56.64-23.616 111.936-43.392 165.632-1.344 3.84-2.56 7.616-3.776 11.52 0.704 0.576 1.344 1.152 1.984 1.728 13.184-8.128 26.752-15.616 39.424-24.384 50.304-35.008 87.808-81.344 115.712-135.488 17.856-34.752 36.032-69.76 39.744-109.824 3.648-40.128-10.112-72.96-40.832-99.072-26.432-22.528-58.56-26.432-91.328-27.2C783.616 319.744 774.016 322.752 763.136 324.352zM485.504 262.016c3.136 3.264 4.672 5.184 6.592 6.784 44.16 38.272 77.184 84.736 100.032 138.176 30.656 71.104 54.208 144.64 72.896 219.712 0.512 2.304 1.6 4.544 2.496 6.784 21.12-65.28 34.88-131.008 32.96-199.36-1.088-33.792-7.04-66.624-20.16-98.112-16.128-38.848-42.88-65.92-84.224-77.056-30.4-8.192-60.864-7.424-91.52-1.6C498.56 258.56 492.672 260.224 485.504 262.016z" p-id="4512" fill="#ffffff"></path></svg>