<?xml version="1.0" standalone="no"?><!DOCTYPE svg PUBLIC "-//W3C//DTD SVG 1.1//EN" "http://www.w3.org/Graphics/SVG/1.1/DTD/svg11.dtd"><svg t="1510988164119" class="icon" style="" viewBox="0 0 1682 1024" version="1.1" xmlns="http://www.w3.org/2000/svg" p-id="6632" xmlns:xlink="http://www.w3.org/1999/xlink" width="142.904296875" height="87"><defs><style type="text/css"></style></defs><path d="M1305.719 442.477c-89.828-2.966-140.349-45.613-208.568-69.523 0 38.62 0 77.252 0 115.871 69.517 0 139.053 0 208.568 0 0 46.343 0 92.703 0 139.045-69.517-1.93-139.053-3.863-208.568-5.794 0 79.169 0 158.367 0 237.536-67.588 0-135.188 0-202.775 0 0-77.24 0-154.503 0-231.743-192.954 0.962-369.856 50.051-527.215 92.697 0 46.343 0 92.703 0 139.045-40.549 0-81.115 0-121.665 0 0-32.827 0-65.664 0-98.49-27.033 11.588-54.078 23.174-81.111 34.762 0-17.381 0-34.762 0-52.142 27.033-13.517 54.078-27.037 81.111-40.555-1.93-27.033-3.863-54.078-5.794-81.111-23.174 25.104-46.348 50.212-69.523 75.316-1.93 0-3.863 0-5.794 0 0-7.723 0-15.451 0-23.174 54.269-75.833 82.361-141.421 81.111-278.092 117.731 10.881 147.366 85.021 243.331 110.077 198.783 51.904 362.156-136.617 405.55-260.711 13.863-39.651-7.403-57.13 17.381-81.111 61.794 15.445 123.601 30.903 185.394 46.348 7.983 87.865 133.043 152.058 208.568 173.807 0 19.311 0 38.625 0 57.936zM888.582 291.844c-45.411 85.119-111.554 130.929-173.807 196.982 70.264-21.459 123.965-67.268 179.601-104.285-1.93-30.897-3.863-61.799-5.794-92.697zM1097.15 291.844c0 13.517 0 27.037 0 40.555 38.62 15.445 77.252 30.903 115.871 46.348-38.62-28.968-77.252-57.936-115.871-86.903zM882.789 425.097c-113.171 98.821-341.438 134.058-515.628 86.903 0 42.485 0 84.974 0 127.459 69.518-23.174 139.053-46.348 208.568-69.523 106.208-21.24 212.438-42.49 318.647-63.729 1.988-31.401 3.216-66.162-11.587-81.111zM367.161 459.858c1.54 30.636-1.343 27.93 17.381 40.555 27.022 16.969 96.787 30.491 127.459 23.174-51.291-23.812-100.189-43.504-144.839-63.729zM239.701 552.555c-9.653 25.104-19.311 50.212-28.968 75.316 11.588-9.652 23.174-19.31 34.762-28.968-1.93-15.445-3.863-30.903-5.794-46.348z" p-id="6633" fill="#ffffff"></path></svg>